<svg xmlns="http://www.w3.org/2000/svg"  viewBox="0 0 120 120" width="120px" height="120px" baseProfile="basic"><path d="M92.949,66c0,0,13,2.749,13,16S90.312,99.052,90.312,99.052L75.949,88l11-19L92.949,66z" opacity=".35"/><path d="M27,66c0,0-13,2.749-13,16s15.637,17.052,15.637,17.052L44,88L33,69L27,66z" opacity=".35"/><path fill="#52afff" d="M92.949,62c0,0,13,2.749,13,16S90.312,95.052,90.312,95.052L75.949,84l11-19L92.949,62z"/><path fill="#52afff" d="M27,62c0,0-13,2.749-13,16s15.637,17.052,15.637,17.052L44,84L33,65L27,62z"/><path fill="#a4e2f1" d="M98,46.04H22v-7.935C22,22.583,34.583,10,50.106,10h19.788C85.417,10,98,22.583,98,38.106V46.04z"/><path d="M100,67V49H20v18h5.055l6.997,16.987C25.019,86.182,20,91.843,20,98.5c0,8.56,8.283,15.5,18.5,15.5 S57,107.06,57,98.5c0-0.853-0.104-1.684-0.262-2.5h6.524C63.104,96.816,63,97.647,63,98.5c0,8.56,8.283,15.5,18.5,15.5 s18.5-6.94,18.5-15.5c0-6.651-5.009-12.307-12.032-14.507L95,67H100z" opacity=".35"/><path fill="#a4e2f1" d="M100,63V45H20v18h5.055l6.997,16.987C25.019,82.182,20,87.843,20,94.5c0,8.56,8.283,15.5,18.5,15.5 S57,103.06,57,94.5c0-0.853-0.104-1.684-0.262-2.5h6.524C63.104,92.816,63,93.647,63,94.5c0,8.56,8.283,15.5,18.5,15.5 s18.5-6.94,18.5-15.5c0-6.651-5.009-12.307-12.032-14.507L95,63H100z"/><path fill="#52afff" d="M81,90c-2.092,0-4.059,0.541-5.774,1.486C72.446,85.876,66.674,82,60,82s-12.446,3.876-15.226,9.486 C43.059,90.541,41.092,90,39,90c-6.617,0-12,5.383-12,12c0,1.957,0.48,3.8,1.314,5.433C31.237,109.052,34.735,110,38.5,110 c10.217,0,18.5-6.94,18.5-15.5c0-0.853-0.104-1.684-0.262-2.5h6.524C63.104,92.816,63,93.647,63,94.5c0,8.56,8.283,15.5,18.5,15.5 c3.765,0,7.263-0.948,10.186-2.567C92.52,105.8,93,103.957,93,102C93,95.383,87.617,90,81,90z"/><circle cx="81" cy="102" r="4" opacity=".35"/><circle cx="39" cy="102" r="4" opacity=".35"/><circle cx="81" cy="99" r="4" fill="#0037ff"/><circle cx="39" cy="99" r="4" fill="#0037ff"/><circle cx="60" cy="103" r="10" opacity=".35"/><circle cx="60" cy="99" r="10" fill="#0037ff"/><path d="M55,51c0,0-6,10-16,10S29,51,29,51H55z" opacity=".35"/><path d="M65,51c0,0,6,10,16,10s10-10,10-10H65z" opacity=".35"/><path fill="#0037ff" d="M55,48c0,0-6,10-16,10S29,48,29,48H55z"/><path fill="#0037ff" d="M65,48c0,0,6,10,16,10s10-10,10-10H65z"/><rect width="76" height="4" x="22" y="41" fill="#52afff"/><path fill="#0037ff" d="M60,62c-11,0-27,20-27,20s19-12,27-12s27,12,27,12S71,62,60,62z"/><path fill="#52afff" d="M66,71.293c1.285,0.445,2.632,0.98,4,1.575v-7.012c-1.332-0.886-2.674-1.658-4-2.281V71.293z"/><path fill="#52afff" d="M79,73.31c-1.251-1.213-2.596-2.45-4-3.642v5.564c1.388,0.701,2.736,1.415,4,2.106V73.31z"/><path fill="#52afff" d="M54,63.575c-1.326,0.623-2.668,1.395-4,2.281v7.012c1.368-0.595,2.715-1.13,4-1.575V63.575z"/><path fill="#52afff" d="M41,77.337c1.264-0.691,2.612-1.404,4-2.106v-5.564c-1.404,1.193-2.749,2.429-4,3.642V77.337z"/></svg>